<?xml version="1.0" encoding="utf-8"?>
<svg viewBox="0 0 115 25" xmlns="http://www.w3.org/2000/svg">
  <style>

svg {
  width:110vw;
  position:fixed;
  top:-5px;
  transform: rotate(360deg);
  overflow:visible;
}

.wave {
  animation: wave 3s linear;
  animation-iteration-count:infinite;
  fill: #000;  
}

.wave:hover {
  fill: #fff;
}

#wave2 {
  animation-duration:6s;
  animation-direction: reverse;
  opacity: .9;
}

#wave3 {
  animation-duration: 3s;
  opacity:.6;
}

@keyframes wave {
  to {transform: translateX(-100%);}
}

</style>
  <defs>
    <path id="wave" d="M 0,10 C 30,10 30,15 60,15 90,15 90,10 120,10 150,10 150,15 180,15 210,15 210,10 240,10 v 28 h -240 z"/>
  </defs>
  <path id="wave2" d="M -0.075 13.622 C 29.925 13.622 29.925 8.236 59.925 8.236 C 89.925 8.236 89.925 13.622 119.925 13.622 C 149.925 13.622 149.925 8.236 179.925 8.236 C 209.925 8.236 209.925 13.622 239.925 13.622 L 239.925 -16.538 L -0.075 -16.538 L -0.075 13.622 Z" style=""/>
  <g transform="matrix(0.943382, 0, 0, 1.027873, -2.230559, -1.270327)" style="">
    <path id="wave3" d="M 0.097 18.423 C 30.097 18.423 30.097 12.362 60.097 12.362 C 90.097 12.362 90.097 18.423 120.097 18.423 C 150.097 18.423 150.097 12.362 180.097 12.362 C 210.097 12.362 210.097 18.423 240.097 18.423 L 240.097 -15.517 L 0.097 -15.517 L 0.097 18.423 Z" style=""/>
  </g>
</svg>